<svg width="44" height="44" viewBox="0 0 44 44" fill="none" xmlns="http://www.w3.org/2000/svg">
<rect width="44" height="44" rx="10" fill="#EBF0FE"/>
<path d="M19.41 30H16.5C15 30 13.68 29.5 12.61 28.43C11.54 27.38 11 26.09 11 24.58C11 23.28 11.39 22.12 12.17 21.1C12.9306 20.1028 14.0233 19.411 15.25 19.15C15.67 17.62 16.5 16.38 17.75 15.43C19 14.5 20.42 14 22 14C23.95 14 25.61 14.68 26.96 16.04C28.32 17.39 29 19.05 29 21C30.15 21.13 31.11 21.63 31.86 22.5C32.5 23.23 32.86 24.06 32.96 25H28C27.5337 24.3796 26.9297 23.876 26.2355 23.5289C25.5414 23.1818 24.7761 23.0008 24 23C21.2 23 19 25.2 19 28C19 28.72 19.15 29.39 19.41 30ZM33 27V29H31V31H29V29H26.8C26.4 30.2 25.3 31 24 31C22.3 31 21 29.7 21 28C21 26.3 22.3 25 24 25C25.3 25 26.4 25.8 26.8 27H33ZM25 28C25 27.5 24.6 27 24 27C23.4 27 23 27.5 23 28C23 28.5 23.4 29 24 29C24.6 29 25 28.5 25 28Z" fill="#0843E1"/>
</svg>
