<svg width="44" height="44" viewBox="0 0 44 44" fill="none" xmlns="http://www.w3.org/2000/svg">
<rect width="44" height="44" rx="10" fill="#EBF0FE"/>
<path fill-rule="evenodd" clip-rule="evenodd" d="M12.3999 14.2C12.3999 13.7226 12.5895 13.2648 12.9271 12.9272C13.2647 12.5896 13.7225 12.4 14.1999 12.4H24.9999C25.4773 12.4 25.9351 12.5896 26.2727 12.9272C26.6103 13.2648 26.7999 13.7226 26.7999 14.2V28.3C26.7999 29.1752 27.1476 30.0146 27.7664 30.6334C28.3853 31.2523 29.2247 31.6 30.0999 31.6H15.6999C14.8247 31.6 13.9853 31.2523 13.3665 30.6334C12.7476 30.0146 12.3999 29.1752 12.3999 28.3V14.2ZM16.8999 22.6C16.6612 22.6 16.4323 22.6948 16.2635 22.8636C16.0947 23.0324 15.9999 23.2613 15.9999 23.5C15.9999 23.7387 16.0947 23.9676 16.2635 24.1364C16.4323 24.3052 16.6612 24.4 16.8999 24.4H22.2999C22.5386 24.4 22.7675 24.3052 22.9363 24.1364C23.1051 23.9676 23.1999 23.7387 23.1999 23.5C23.1999 23.2613 23.1051 23.0324 22.9363 22.8636C22.7675 22.6948 22.5386 22.6 22.2999 22.6H16.8999ZM16.8999 26.2C16.6612 26.2 16.4323 26.2948 16.2635 26.4636C16.0947 26.6324 15.9999 26.8613 15.9999 27.1C15.9999 27.3387 16.0947 27.5676 16.2635 27.7364C16.4323 27.9052 16.6612 28 16.8999 28H22.2999C22.5386 28 22.7675 27.9052 22.9363 27.7364C23.1051 27.5676 23.1999 27.3387 23.1999 27.1C23.1999 26.8613 23.1051 26.6324 22.9363 26.4636C22.7675 26.2948 22.5386 26.2 22.2999 26.2H16.8999ZM15.9999 16.9C15.9999 16.6613 16.0947 16.4324 16.2635 16.2636C16.4323 16.0948 16.6612 16 16.8999 16H22.2999C22.5386 16 22.7675 16.0948 22.9363 16.2636C23.1051 16.4324 23.1999 16.6613 23.1999 16.9V19.9C23.1999 20.1387 23.1051 20.3676 22.9363 20.5364C22.7675 20.7052 22.5386 20.8 22.2999 20.8H16.8999C16.6612 20.8 16.4323 20.7052 16.2635 20.5364C16.0947 20.3676 15.9999 20.1387 15.9999 19.9V16.9Z" fill="#0843E1"/>
<path d="M29.8001 17.8H28.6001V28.3C28.6001 28.6978 28.7581 29.0793 29.0394 29.3606C29.3207 29.642 29.7023 29.8 30.1001 29.8C30.4979 29.8 30.8795 29.642 31.1608 29.3606C31.4421 29.0793 31.6001 28.6978 31.6001 28.3V19.6C31.6001 19.1226 31.4105 18.6648 31.0729 18.3272C30.7353 17.9896 30.2775 17.8 29.8001 17.8Z" fill="#0843E1"/>
</svg>
