<svg width="45" height="44" viewBox="0 0 45 44" fill="none" xmlns="http://www.w3.org/2000/svg">
<rect x="0.333008" width="44" height="44" rx="10" fill="#EBF0FE"/>
<path fill-rule="evenodd" clip-rule="evenodd" d="M15.3328 21C15.3328 20.2121 15.488 19.4319 15.7896 18.7039C16.0911 17.9759 16.533 17.3145 17.0902 16.7574C17.6474 16.2002 18.3088 15.7583 19.0367 15.4567C19.7647 15.1552 20.5449 15 21.3328 15C22.1208 15 22.901 15.1552 23.6289 15.4567C24.3569 15.7583 25.0183 16.2002 25.5755 16.7574C26.1326 17.3145 26.5746 17.9759 26.8761 18.7039C27.1776 19.4319 27.3328 20.2121 27.3328 21C27.3328 22.5913 26.7007 24.1174 25.5755 25.2426C24.4503 26.3679 22.9241 27 21.3328 27C19.7415 27 18.2154 26.3679 17.0902 25.2426C15.965 24.1174 15.3328 22.5913 15.3328 21ZM21.3328 13C20.0597 13.0002 18.805 13.3042 17.673 13.8868C16.541 14.4695 15.5644 15.3138 14.8243 16.3498C14.0843 17.3858 13.6022 18.5834 13.4181 19.8432C13.234 21.1029 13.3532 22.3884 13.7658 23.5928C14.1784 24.7973 14.8726 25.8858 15.7905 26.768C16.7084 27.6502 17.8237 28.3006 19.0435 28.6651C20.2634 29.0296 21.5526 29.0977 22.804 28.8638C24.0555 28.6298 25.2331 28.1006 26.2388 27.32L29.6258 30.707C29.8144 30.8892 30.067 30.99 30.3292 30.9877C30.5914 30.9854 30.8423 30.8802 31.0277 30.6948C31.2131 30.5094 31.3182 30.2586 31.3205 29.9964C31.3228 29.7342 31.222 29.4816 31.0398 29.293L27.6528 25.906C28.5709 24.7235 29.1388 23.307 29.2918 21.8178C29.4449 20.3285 29.1769 18.8262 28.5185 17.4816C27.8601 16.1371 26.8376 15.0043 25.5673 14.212C24.297 13.4198 22.8299 12.9998 21.3328 13ZM21.3328 25C22.3937 25 23.4111 24.5786 24.1613 23.8284C24.9114 23.0783 25.3328 22.0609 25.3328 21C25.3328 19.9391 24.9114 18.9217 24.1613 18.1716C23.4111 17.4214 22.3937 17 21.3328 17C20.272 17 19.2546 17.4214 18.5044 18.1716C17.7543 18.9217 17.3328 19.9391 17.3328 21C17.3328 22.0609 17.7543 23.0783 18.5044 23.8284C19.2546 24.5786 20.272 25 21.3328 25Z" fill="#0843E1"/>
</svg>
