<svg width="53" height="52" viewBox="0 0 53 52" fill="none" xmlns="http://www.w3.org/2000/svg">
<g filter="url(#filter0_d_8_1897)">
<rect x="4.66699" width="44" height="44" rx="10" fill="#EBF0FE" shape-rendering="crispEdges"/>
<path d="M30.0859 28.3403C30.1597 28.4535 30.2015 28.5845 30.207 28.7195C30.2125 28.8544 30.1815 28.9884 30.1171 29.1072C30.0528 29.226 29.9576 29.3252 29.8415 29.3943C29.7254 29.4635 29.5929 29.5 29.4578 29.5H15.6259C15.4908 29.5 15.3582 29.4635 15.2421 29.3943C15.1261 29.3252 15.0308 29.226 14.9665 29.1072C14.9022 28.9884 14.8711 28.8544 14.8766 28.7195C14.8821 28.5845 14.924 28.4535 14.9978 28.3403C16.0535 26.7153 17.6063 25.4752 19.4246 24.805C18.4194 24.1358 17.6563 23.1609 17.248 22.0244C16.8398 20.888 16.8081 19.6503 17.1577 18.4944C17.5072 17.3385 18.2195 16.3258 19.1891 15.6061C20.1587 14.8863 21.3343 14.4977 22.5418 14.4977C23.7494 14.4977 24.9249 14.8863 25.8945 15.6061C26.8642 16.3258 27.5764 17.3385 27.926 18.4944C28.2756 19.6503 28.2439 20.888 27.8356 22.0244C27.4274 23.1609 26.6642 24.1358 25.659 24.805C27.4773 25.4752 29.0302 26.7153 30.0859 28.3403ZM38.3274 28.3263C37.2714 26.7081 35.722 25.4733 33.909 24.805C35.0957 24.0056 35.9331 22.7841 36.2509 21.3891C36.5687 19.994 36.343 18.5303 35.6196 17.2958C34.8962 16.0614 33.7296 15.149 32.3572 14.7443C30.9848 14.3397 29.5098 14.4733 28.2324 15.1178C28.1836 15.143 28.1409 15.1787 28.1074 15.2222C28.0738 15.2658 28.0503 15.3162 28.0384 15.3699C28.0265 15.4235 28.0265 15.4792 28.0385 15.5328C28.0505 15.5865 28.0741 15.6368 28.1078 15.6803C29.0576 16.8651 29.6031 18.323 29.6643 19.8403C29.7256 21.3576 29.2993 22.8547 28.4481 24.1122C28.3931 24.1944 28.3727 24.295 28.3915 24.3921C28.4103 24.4892 28.4667 24.5749 28.5484 24.6306C29.6583 25.4053 30.6084 26.3866 31.3468 27.5209C31.6446 27.977 31.7662 28.5258 31.689 29.065C31.6803 29.1186 31.6834 29.1735 31.698 29.2258C31.7126 29.2782 31.7384 29.3267 31.7736 29.3681C31.8089 29.4095 31.8526 29.4427 31.902 29.4655C31.9513 29.4882 32.005 29.5 32.0593 29.5H37.7124C37.8776 29.5001 38.0381 29.4456 38.1692 29.3451C38.3002 29.2445 38.3944 29.1036 38.4371 28.9441C38.4632 28.8392 38.4669 28.7299 38.448 28.6235C38.4291 28.517 38.388 28.4158 38.3274 28.3263Z" fill="#0843E1"/>
</g>
<defs>
<filter id="filter0_d_8_1897" x="0.666992" y="0" width="52" height="52" filterUnits="userSpaceOnUse" color-interpolation-filters="sRGB">
<feFlood flood-opacity="0" result="BackgroundImageFix"/>
<feColorMatrix in="SourceAlpha" type="matrix" values="0 0 0 0 0 0 0 0 0 0 0 0 0 0 0 0 0 0 127 0" result="hardAlpha"/>
<feOffset dy="4"/>
<feGaussianBlur stdDeviation="2"/>
<feComposite in2="hardAlpha" operator="out"/>
<feColorMatrix type="matrix" values="0 0 0 0 0 0 0 0 0 0 0 0 0 0 0 0 0 0 0.25 0"/>
<feBlend mode="normal" in2="BackgroundImageFix" result="effect1_dropShadow_8_1897"/>
<feBlend mode="normal" in="SourceGraphic" in2="effect1_dropShadow_8_1897" result="shape"/>
</filter>
</defs>
</svg>
