<svg width="45" height="44" viewBox="0 0 45 44" fill="none" xmlns="http://www.w3.org/2000/svg">
<rect x="0.666992" width="44" height="44" rx="10" fill="#EBF0FE"/>
<path d="M30.667 32H17.167C16.2387 32 15.3485 31.6313 14.6921 30.9749C14.0357 30.3185 13.667 29.4283 13.667 28.5V15C13.667 14.2044 13.9831 13.4413 14.5457 12.8787C15.1083 12.3161 15.8713 12 16.667 12H30.667C30.9322 12 31.1866 12.1054 31.3741 12.2929C31.5616 12.4804 31.667 12.7348 31.667 13V31C31.667 31.2652 31.5616 31.5196 31.3741 31.7071C31.1866 31.8946 30.9322 32 30.667 32ZM29.667 30V27H17.167C16.7692 27 16.3876 27.158 16.1063 27.4393C15.825 27.7206 15.667 28.1022 15.667 28.5C15.667 28.8978 15.825 29.2794 16.1063 29.5607C16.3876 29.842 16.7692 30 17.167 30H29.667Z" fill="#0843E1"/>
</svg>
