<svg width="45" height="44" viewBox="0 0 45 44" fill="none" xmlns="http://www.w3.org/2000/svg">
<rect x="0.333008" width="44" height="44" rx="10" fill="#EBF0FE"/>
<path d="M30.958 12.625H13.708C13.2932 12.625 12.958 12.9602 12.958 13.375V30.625C12.958 31.0398 13.2932 31.375 13.708 31.375H30.958C31.3729 31.375 31.708 31.0398 31.708 30.625V13.375C31.708 12.9602 31.3729 12.625 30.958 12.625ZM18.958 27.4375C18.958 27.5406 18.8736 27.625 18.7705 27.625H16.8955C16.7924 27.625 16.708 27.5406 16.708 27.4375V16.5625C16.708 16.4594 16.7924 16.375 16.8955 16.375H18.7705C18.8736 16.375 18.958 16.4594 18.958 16.5625V27.4375ZM23.458 20.875C23.458 20.9781 23.3736 21.0625 23.2705 21.0625H21.3955C21.2924 21.0625 21.208 20.9781 21.208 20.875V16.5625C21.208 16.4594 21.2924 16.375 21.3955 16.375H23.2705C23.3736 16.375 23.458 16.4594 23.458 16.5625V20.875ZM27.958 22.5625C27.958 22.6656 27.8736 22.75 27.7705 22.75H25.8955C25.7924 22.75 25.708 22.6656 25.708 22.5625V16.5625C25.708 16.4594 25.7924 16.375 25.8955 16.375H27.7705C27.8736 16.375 27.958 16.4594 27.958 16.5625V22.5625Z" fill="#0843E1"/>
</svg>
